<svg width="48" height="48" viewBox="0 0 48 48" fill="none" xmlns="http://www.w3.org/2000/svg">
<rect width="48" height="48" fill="white"/>
<g clip-path="url(#clip0_401_11)">
<path d="M35.7141 24.2247C35.7141 23.2414 35.6343 22.5239 35.4616 21.7798H24.2336V26.2178H30.8242C30.6914 27.3207 29.9739 28.9816 28.3793 30.0977L28.357 30.2463L31.907 32.9965L32.153 33.021C34.4118 30.9349 35.7141 27.8654 35.7141 24.2247Z" fill="#4285F4"/>
<path d="M24.2336 35.9173C27.4624 35.9173 30.1731 34.8543 32.153 33.0206L28.3793 30.0973C27.3695 30.8016 26.0141 31.2932 24.2336 31.2932C21.0712 31.2932 18.3871 29.2071 17.4304 26.3237L17.2901 26.3356L13.5987 29.1925L13.5504 29.3267C15.5169 33.2332 19.5564 35.9173 24.2336 35.9173Z" fill="#34A853"/>
<path d="M17.4303 26.3238C17.1778 25.5797 17.0317 24.7824 17.0317 23.9586C17.0317 23.1347 17.1778 22.3375 17.417 21.5934L17.4103 21.4349L13.6726 18.5322L13.5504 18.5904C12.7398 20.2115 12.2748 22.0319 12.2748 23.9586C12.2748 25.8853 12.7398 27.7056 13.5504 29.3267L17.4303 26.3238Z" fill="#FBBC05"/>
<path d="M24.2336 16.624C26.4792 16.624 27.9939 17.594 28.8577 18.4046L32.2327 15.1093C30.1599 13.1826 27.4624 12 24.2336 12C19.5564 12 15.5169 14.6841 13.5504 18.5906L17.4171 21.5936C18.3871 18.7102 21.0712 16.624 24.2336 16.624Z" fill="#EB4335"/>
</g>
<defs>
<clipPath id="clip0_401_11">
<rect width="24" height="24" fill="white" transform="translate(12 12)"/>
</clipPath>
</defs>
</svg>
