<svg width="48" height="48" viewBox="0 0 48 48" fill="none" xmlns="http://www.w3.org/2000/svg">
<rect width="48" height="48" fill="url(#paint0_linear_401_3)"/>
<path d="M31.7328 20.2335C31.4838 20.1478 31.2259 20.0667 30.9602 19.99C31.0039 19.8118 31.044 19.6359 31.0796 19.4631C31.6644 16.6242 31.282 14.3372 29.9763 13.5842C28.7243 12.8622 26.6767 13.615 24.6087 15.4147C24.4099 15.5878 24.2104 15.771 24.0111 15.963C23.8783 15.836 23.7457 15.7132 23.6134 15.5958C21.4461 13.6714 19.2738 12.8605 17.9693 13.6156C16.7185 14.3397 16.3481 16.4897 16.8745 19.1801C16.9253 19.44 16.9847 19.7054 17.0519 19.9752C16.7445 20.0625 16.4477 20.1555 16.1637 20.2545C13.6227 21.1404 12 22.5288 12 23.9689C12 25.4562 13.742 26.9481 16.3886 27.8527C16.5974 27.9241 16.8142 27.9916 17.0375 28.0557C16.965 28.3475 16.902 28.6334 16.849 28.9124C16.3471 31.5561 16.7391 33.6553 17.9866 34.3748C19.2751 35.1179 21.4377 34.3541 23.5435 32.5134C23.7099 32.3679 23.8769 32.2136 24.0443 32.0518C24.2611 32.2607 24.4777 32.4583 24.6931 32.6437C26.7328 34.399 28.7473 35.1077 29.9937 34.3862C31.2809 33.641 31.6993 31.386 31.1561 28.6423C31.1147 28.4328 31.0664 28.2187 31.0122 28.0008C31.164 27.9559 31.3131 27.9096 31.4585 27.8614C34.2099 26.9498 36 25.4761 36 23.9689C36 22.5235 34.3249 21.1258 31.7328 20.2335ZM31.1361 26.8882C31.0048 26.9317 30.8702 26.9736 30.733 27.0144C30.4292 26.0528 30.0193 25.0303 29.5176 23.9739C29.9963 22.9426 30.3904 21.9332 30.6857 20.9779C30.9312 21.0489 31.1695 21.1238 31.3991 21.2029C33.62 21.9675 34.9747 23.0979 34.9747 23.9689C34.9747 24.8967 33.5117 26.1011 31.1361 26.8882ZM30.1504 28.8414C30.3905 30.0546 30.4248 31.1515 30.2657 32.009C30.1228 32.7795 29.8353 33.2932 29.4799 33.4989C28.7236 33.9367 27.1061 33.3676 25.3617 31.8665C25.1618 31.6945 24.9603 31.5107 24.7583 31.3163C25.4345 30.5767 26.1104 29.7169 26.77 28.7619C27.9303 28.659 29.0264 28.4907 30.0204 28.2609C30.0694 28.4584 30.1129 28.6521 30.1504 28.8414ZM20.1821 33.4233C19.4432 33.6842 18.8546 33.6917 18.4989 33.4866C17.7418 33.0499 17.4271 31.3645 17.8564 29.1036C17.9056 28.8446 17.9641 28.5787 18.0315 28.3068C19.0147 28.5242 20.1028 28.6806 21.2658 28.7749C21.9299 29.7093 22.6253 30.5682 23.3261 31.3202C23.1729 31.4681 23.0204 31.6088 22.8688 31.7414C21.9376 32.5553 21.0045 33.1328 20.1821 33.4233ZM16.7202 26.8825C15.5499 26.4825 14.5835 25.9627 13.921 25.3954C13.3258 24.8856 13.0252 24.3795 13.0252 23.9689C13.0252 23.095 14.3281 21.9803 16.5012 21.2226C16.7648 21.1307 17.0408 21.0441 17.3273 20.9627C17.6276 21.9396 18.0216 22.961 18.497 23.9938C18.0154 25.042 17.6158 26.0797 17.3126 27.068C17.1084 27.0093 16.9105 26.9475 16.7202 26.8825ZM17.8807 18.9832C17.4296 16.6782 17.7292 14.9393 18.483 14.503C19.2859 14.0381 21.0614 14.7009 22.9326 16.3625C23.0523 16.4687 23.1723 16.5798 23.2928 16.6948C22.5955 17.4436 21.9064 18.296 21.2483 19.2249C20.1195 19.3295 19.039 19.4976 18.0456 19.7226C17.9832 19.4714 17.9279 19.2246 17.8807 18.9832ZM28.2332 21.5395C27.9957 21.1293 27.7519 20.7288 27.5034 20.3393C28.2691 20.4361 29.0028 20.5646 29.6918 20.7218C29.4849 21.3848 29.2271 22.0779 28.9236 22.7884C28.7059 22.3751 28.4757 21.9584 28.2332 21.5395ZM24.0114 17.4276C24.4844 17.9399 24.9579 18.5119 25.4238 19.1325C24.9544 19.1104 24.4791 19.0988 24 19.0988C23.5254 19.0988 23.0537 19.1101 22.5872 19.1319C23.0535 18.517 23.5312 17.9458 24.0114 17.4276ZM19.7627 21.5466C19.5255 21.958 19.2995 22.3724 19.0852 22.7877C18.7866 22.0796 18.5312 21.3833 18.3226 20.711C19.0073 20.5578 19.7375 20.4325 20.4984 20.3375C20.2464 20.7306 20.0005 21.1342 19.7627 21.5466ZM20.5203 27.6734C19.7342 27.5857 18.993 27.4668 18.3084 27.3178C18.5204 26.6335 18.7814 25.9224 19.0863 25.199C19.3012 25.614 19.5281 26.0286 19.7667 26.4408C20.0099 26.8608 20.2618 27.2722 20.5203 27.6734ZM24.0398 30.5825C23.5539 30.0582 23.0692 29.4782 22.5958 28.8544C23.0553 28.8724 23.5238 28.8816 24 28.8816C24.4892 28.8816 24.9728 28.8706 25.4488 28.8494C24.9814 29.4845 24.5095 30.0654 24.0398 30.5825ZM28.9334 25.1622C29.2542 25.8933 29.5246 26.6007 29.7393 27.2734C29.0434 27.4322 28.2921 27.56 27.5005 27.655C27.7497 27.2602 27.9956 26.8528 28.2373 26.4338C28.4818 26.0098 28.7139 25.5853 28.9334 25.1622ZM27.3492 25.9216C26.974 26.5721 26.5889 27.1931 26.1978 27.7792C25.4857 27.8301 24.7499 27.8564 24 27.8564C23.2531 27.8564 22.5266 27.8332 21.8271 27.7878C21.4203 27.1939 21.0268 26.5711 20.654 25.9272C20.2822 25.285 19.9401 24.6374 19.63 23.9935C19.94 23.348 20.2813 22.6997 20.6509 22.0587L20.6509 22.0588C21.0215 21.4161 21.4116 20.7963 21.8146 20.2062C22.5283 20.1523 23.2603 20.1241 24 20.1241C24.743 20.1241 25.4759 20.1525 26.1894 20.2069C26.5863 20.7927 26.9737 21.4105 27.3458 22.0533C27.7221 22.7033 28.0678 23.3473 28.3804 23.9789C28.0688 24.6214 27.7238 25.2719 27.3492 25.9216ZM29.4642 14.4725C30.2679 14.9359 30.5804 16.8051 30.0755 19.2561C30.0433 19.4125 30.007 19.5718 29.9676 19.7333C28.9719 19.5035 27.8907 19.3326 26.7586 19.2263C26.0992 18.2872 25.4158 17.4335 24.7298 16.6944C24.9142 16.5169 25.0984 16.3478 25.2818 16.1881C27.0536 14.6462 28.7097 14.0374 29.4642 14.4725ZM24 21.8258C25.1836 21.8258 26.1431 22.7852 26.1431 23.9689C26.1431 25.1525 25.1836 26.112 24 26.112C22.8164 26.112 21.8569 25.1525 21.8569 23.9689C21.8569 22.7852 22.8164 21.8258 24 21.8258Z" fill="#00D8FF"/>
<defs>
<linearGradient id="paint0_linear_401_3" x1="24" y1="0" x2="24" y2="48" gradientUnits="userSpaceOnUse">
<stop stop-color="white"/>
<stop offset="1" stop-color="white"/>
</linearGradient>
</defs>
</svg>
